<svg height="512pt" viewBox="-1 0 512 512.00207" width="512pt" xmlns="http://www.w3.org/2000/svg"><path d="m490.050781 503.46875h-153.929687v-120.507812c0-8.03125 6.507812-14.539063 14.539062-14.539063h135.710938c8.03125 0 14.539062 6.507813 14.539062 14.539063v109.648437c0 5.996094-4.859375 10.859375-10.859375 10.859375zm0 0" fill="#99e2ff"/><path d="m486.371094 368.421875h-37.628906v135.046875h41.308593c6 0 10.859375-4.863281 10.859375-10.859375v-109.648437c0-8.03125-6.507812-14.539063-14.539062-14.539063zm0 0" fill="#6bd"/><path d="m276.789062 230.839844h-44.136718l13.621094-90.371094h16.894531zm0 0" fill="#e4eaf7"/><path d="m206.824219 9.25c-6.035157 0-10.925781 4.890625-10.925781 10.925781v100.015625c0 30.816406 58.886718 49.34375 58.886718 49.34375s58.886719-18.527344 58.886719-49.34375v-100.015625c0-6.035156-4.890625-10.925781-10.925781-10.925781zm0 0" fill="#fcdf6c"/><path d="m302.746094 9.25h-41.371094v110.941406c0 16.558594-17.003906 29.570313-32.738281 38.0625 13.542969 7.3125 26.148437 11.28125 26.148437 11.28125s58.886719-18.527344 58.886719-49.34375v-100.015625c0-6.03125-4.890625-10.925781-10.925781-10.925781zm0 0" fill="#f4b425"/><path d="m306.679688 292.925781h-103.917969v-61.863281c0-6.1875 5.015625-11.203125 11.203125-11.203125h81.511718c6.1875 0 11.203126 5.015625 11.203126 11.203125zm0 0" fill="#ffa63b"/><path d="m295.476562 219.859375h-40.757812v73.066406h51.960938v-61.863281c0-6.1875-5.015626-11.203125-11.203126-11.203125zm0 0" fill="#ff8533"/><path d="m173.320312 503.46875h-153.929687c-6 0-10.863281-4.863281-10.863281-10.859375v-156.871094c0-8.027343 6.511718-14.539062 14.542968-14.539062h135.511719c8.140625 0 14.738281 6.597656 14.738281 14.738281zm0 0" fill="#7fd19b"/><path d="m158.582031 321.199219h-37.429687v182.269531h52.167968v-167.53125c0-8.140625-6.597656-14.738281-14.738281-14.738281zm0 0" fill="#3cab8b"/><path d="m337.117188 503.46875h-164.792969v-228.65625c0-8.03125 6.511719-14.539062 14.539062-14.539062h135.710938c8.03125 0 14.539062 6.507812 14.539062 14.539062v228.65625zm0 0" fill="#fc5b8c"/><path d="m322.574219 260.273438h-37.417969v243.195312h51.960938v-228.65625c0-8.03125-6.511719-14.539062-14.542969-14.539062zm0 0" fill="#d82652"/><path d="m260.246094 418.835938c2.976562 0 6.066406-1.375 6.066406-4.003907v-75.722656c0-2.515625-2.859375-4.003906-5.378906-4.003906-1.371094 0-2.285156.460937-3.085938 1.261719l-11.898437 11.4375c-1.484375 1.03125-2.398438 2.972656-2.398438 4.6875 0 2.402343 1.714844 4.917968 4.117188 4.917968.683593 0 1.714843-.339844 2.515625-1.140625l4.003906-5.035156v63.597656c0 2.632813 2.972656 4.003907 6.058594 4.003907zm0 0"/><path d="m61.347656 428.1875v11.09375c0 2.402344 3.085938 4.003906 5.375 4.003906h40.71875c2.058594 0 4.003906-2.628906 4.003906-5.488281s-1.945312-5.261719-4.003906-5.261719h-33.628906v-4.347656c0-13.152344 37.0625-21.160156 37.0625-45.753906 0-13.726563-11.210938-22.761719-24.480469-22.761719-12.464843 0-23.449219 8.007813-23.449219 20.246094 0 5.148437 2.289063 6.75 5.492188 6.75 4.003906 0 6.40625-2.289063 6.40625-4.578125 0-7.777344 5.148438-11.324219 11.550781-11.324219 8.695313 0 12.355469 6.40625 12.355469 12.011719 0 17.613281-37.402344 26.878906-37.402344 45.410156zm0 0"/><path d="m435.535156 435.285156c5.492188-2.628906 9.152344-9.605468 9.152344-19.101562 0-15.097656-9.609375-20.359375-22.992188-20.359375-18.871093 0-24.019531 11.898437-24.019531 19.332031 0 4.347656.917969 5.605469 6.292969 5.605469 4.34375 0 5.71875-1.945313 5.71875-4.921875 0-4.6875 2.628906-9.378906 11.894531-9.378906 7.433594 0 11.4375 3.433593 11.4375 11.78125 0 10.410156-4.917969 12.582031-11.894531 12.582031-2.859375 0-3.890625 2.402343-3.890625 4.917969 0 2.402343 1.03125 4.804687 3.890625 4.804687 8.351562 0 13.953125 3.316406 13.953125 12.46875v2.171875c0 9.953125-4.460937 14.183594-13.839844 14.183594-9.265625 0-13.496093-4.917969-13.496093-9.949219 0-3.089844-1.257813-4.574219-6.292969-4.574219-4.117188 0-5.601563 1.140625-5.601563 5.144532 0 9.035156 7.433594 20.132812 25.277344 20.132812 14.410156 0 26.078125-6.75 26.078125-24.9375v-2.171875c0-9.722656-4.917969-15.097656-11.667969-17.730469zm0 0"/><path d="m487.308594 361.347656h-136.257813c-2.097656 0-4.132812.289063-6.070312.832032v-25.257813c0-4.160156-3.371094-7.53125-7.53125-7.53125-4.15625 0-7.527344 3.371094-7.527344 7.53125v41.109375c-.003906.101562-.003906.203125 0 .308594v118.601562h-150.402344v-36.761718c0-4.160157-3.371093-7.53125-7.527343-7.53125-4.160157 0-7.53125 3.371093-7.53125 7.53125v36.761718h-146.027344c-1.859375 0-3.371094-1.511718-3.371094-3.371094v-157.507812c0-3.898438 3.167969-7.070312 7.070312-7.070312h136.058594c2.628906 0 4.984375 1.386718 6.269532 3.609374v97.566407c0 4.160156 3.371093 7.53125 7.527343 7.53125 4.160157 0 7.53125-3.375 7.53125-7.53125v-99.0625c.003907-.109375.003907-.222657 0-.332031v-55.882813c0-3.898437 3.171875-7.070313 7.070313-7.070313h136.261718c3.898438 0 7.070313 3.167969 7.070313 7.070313v31.570313c0 4.15625 3.371094 7.527343 7.527344 7.527343 4.160156 0 7.53125-3.371093 7.53125-7.527343v-31.570313c0-12.203125-9.929688-22.132813-22.128907-22.132813h-8.429687v-21.796874c0-10.355469-8.425781-18.777344-18.78125-18.777344h-13.945313l-6.480468-43.007813c4.050781-1.863281 8.460937-4.082031 12.894531-6.632812 12.257813-7.066407 21.164063-14.648438 26.671875-22.679688 3.132812 2.214844 6.914062 3.511719 10.984375 3.511719 10.761719 0 19.515625-9.070312 19.515625-20.222656 0-4.160156-3.371094-7.527344-7.53125-7.527344s-7.53125 3.371094-7.53125 7.527344c0 2.847656-1.996094 5.164062-4.453125 5.164062-2.453125 0-4.453125-2.316406-4.453125-5.164062 0-.273438.007812-.546875.019531-.820313.019531-.269531.039063-.539062.054688-.8125.367187-3.90625 2.03125-7.589843 4.6875-10.296875 2.835937-2.882812 7.039062-6.488281 11.902343-10.664062 18.40625-15.792969 43.609376-37.417969 45.46875-62.039063.78125-10.339843-2.648437-20.027343-10.195312-28.789062-5.207031-6.046875-12.082031-9.402344-19.886719-9.7070315-12.105469-.4570315-24.445312 6.3593745-33.128906 12.6171875-2.65625-6.960937-9.40625-11.921875-17.292969-11.921875h-96.3125c-7.890625 0-14.644531 4.96875-17.296875 11.941406-8.722656-6.273437-21.125-13.117187-33.269531-12.6367185-7.800781.3125005-14.671875 3.6679685-19.871094 9.7070315-7.542968 8.761719-10.972656 18.445312-10.195312 28.789062 1.859375 24.621094 27.066406 46.246094 45.46875 62.039063 4.863281 4.175781 9.066406 7.78125 11.902344 10.664062 3.027343 3.082032 4.765624 7.429688 4.765624 11.929688 0 2.847656-2 5.164062-4.457031 5.164062-2.453125 0-4.453125-2.316406-4.453125-5.164062 0-4.160156-3.371094-7.527344-7.53125-7.527344-4.15625 0-7.527344 3.371094-7.527344 7.527344 0 11.152344 8.753907 20.222656 19.515626 20.222656 4.105468 0 7.921874-1.320312 11.066406-3.574219 5.507812 8.054688 14.429687 15.65625 26.71875 22.738281 4.386718 2.527344 8.757812 4.726563 12.773437 6.578126l-6.492187 43.066406h-13.945313c-10.351562 0-18.777343 8.421875-18.777343 18.777344v21.796874h-8.429688c-12.203125 0-22.128906 9.929688-22.128906 22.128907v39.957031c-2.011719-.59375-4.117188-.914062-6.269532-.914062h-136.0625c-12.203124 0-22.132812 9.929687-22.132812 22.132812v157.503906c0 10.164063 8.269531 18.4375 18.433594 18.4375h472.570312c10.167969 0 18.4375-8.273437 18.4375-18.4375v-110.089844c0-12.203124-9.929687-22.128906-22.132812-22.128906zm-134.511719-346.273437c3.660156.148437 6.53125 1.574219 9.039063 4.484375 4.910156 5.699218 7.066406 11.53125 6.589843 17.828125-1.390625 18.390625-24.777343 38.460937-40.253906 51.746093-2.414063 2.070313-4.671875 4.007813-6.730469 5.828126v-39.09375c1.371094.304687 2.785156.460937 4.222656.460937 10.664063 0 19.34375-8.675781 19.34375-19.339844 0-4.160156-3.371093-7.527343-7.53125-7.527343-4.160156 0-7.53125 3.371093-7.53125 7.527343 0 2.359375-1.917968 4.28125-4.277343 4.28125-1.132813 0-2.191407-.441406-2.980469-1.234375-.808594-.816406-1.25-1.90625-1.246094-3.121094v-5.929687c6.691406-5.972656 20.605469-16.316406 31.355469-15.910156zm-171.527344 74.054687c-15.476562-13.28125-38.867187-33.351562-40.253906-51.742187-.476563-6.296875 1.679687-12.128907 6.585937-17.828125 2.503907-2.910156 5.378907-4.332032 9.042969-4.484375 10.753907-.457031 24.761719 9.933593 31.484375 15.917969v5.96875c.011719 1.515624-.777344 2.535156-1.242187 3.007812-.832031.835938-1.941407 1.296875-3.113281 1.296875-2.359376 0-4.277344-1.917969-4.277344-4.277344 0-4.160156-3.371094-7.53125-7.53125-7.53125s-7.53125 3.371094-7.53125 7.53125c0 10.664063 8.679687 19.339844 19.34375 19.339844 1.484375 0 2.941406-.167969 4.351562-.488281v39.234375c-2.09375-1.851563-4.394531-3.828125-6.859375-5.945313zm21.921875 30.511719v-100.417969c0-1.898437 1.542969-3.441406 3.4375-3.441406h96.3125c1.898438 0 3.441406 1.542969 3.441406 3.441406v100.417969c0 19.816406-35.316406 36.042969-51.597656 41.617187-16.285156-5.578124-51.59375-21.800781-51.59375-41.617187zm45.386719 55.375c2.324219.839844 3.761719 1.292969 3.945313 1.351563.738281.234374 1.5.347656 2.261718.347656.761719 0 1.523438-.113282 2.261719-.347656.179687-.054688 1.570313-.496094 3.820313-1.308594l5.597656 37.125h-23.492188zm-38.496094 55.945313c0-2.050782 1.667969-3.71875 3.71875-3.71875h81.839844c2.050781 0 3.71875 1.667968 3.71875 3.71875v21.796874h-89.277344zm284.296875 262.605468c0 1.863282-1.515625 3.375-3.375 3.375h-146.023437v-117.074218c1.257812-2.132813 3.535156-3.460938 6.070312-3.460938h136.257813c3.898437 0 7.070312 3.171875 7.070312 7.070312zm0 0"/></svg>