<svg height="418pt" viewBox="0 -48 418.6 418" width="418pt" xmlns="http://www.w3.org/2000/svg"><path d="m296.800781 83.101562c0 5.398438-4.402343 9.699219-9.699219 9.699219-5.402343 0-9.703124-4.402343-9.703124-9.699219h-272.5v194.597657c0 21.5 17.402343 38.902343 38.902343 38.902343h330.898438c21.5 0 38.902343-17.402343 38.902343-38.902343v-194.597657zm0 0" fill="#fcd64b"/><path d="m374.601562 320.601562h-330.800781c-23.699219 0-42.902343-19.300781-42.902343-42.902343v-194.597657c0-2.203124 1.800781-4 4-4h272.402343c2.199219 0 4 1.796876 4 4 0 3.199219 2.597657 5.699219 5.699219 5.699219 3.199219 0 5.699219-2.601562 5.699219-5.699219 0-2.203124 1.800781-4 4-4h116.800781c2.199219 0 4 1.796876 4 4v194.597657c0 23.601562-19.199219 42.902343-42.898438 42.902343zm-365.703124-233.5v190.597657c0 19.300781 15.703124 34.902343 34.902343 34.902343h330.800781c19.296876 0 34.898438-15.703124 34.898438-34.902343v-190.597657h-109.300781c-1.699219 5.597657-7 9.699219-13.097657 9.699219-6.101562 0-11.402343-4.101562-13.101562-9.699219zm0 0" fill="#402943"/><path d="m364.898438 83.101562v194.597657c0 21.5-17.398438 38.902343-38.898438 38.902343h48.699219c21.5 0 38.902343-17.402343 38.902343-38.902343v-194.597657zm0 0" fill="#f5ab33"/><path d="m53.5 83.101562v194.597657c0 21.5 17.398438 38.902343 38.898438 38.902343h-48.597657c-21.5 0-38.902343-17.402343-38.902343-38.902343v-194.597657zm0 0" fill="#f5ab33"/><path d="m374.601562 321.398438h-330.800781c-24.101562 0-43.800781-19.597657-43.800781-43.796876v-194.5c0-2.703124 2.199219-4.902343 4.898438-4.902343h272.402343c2.699219 0 4.898438 2.199219 4.898438 4.902343 0 2.699219 2.199219 4.898438 4.902343 4.898438 2.699219 0 4.898438-2.199219 4.898438-4.898438 0-2.703124 2.199219-4.902343 4.898438-4.902343h116.800781c2.699219 0 4.902343 2.199219 4.902343 4.902343v194.597657c-.203124 24.101562-19.902343 43.699219-44 43.699219zm0-9.699219c18.796876 0 34.097657-15.300781 34.097657-34.097657v-189.703124h-107.898438c-2 5.703124-7.402343 9.703124-13.800781 9.703124-6.300781 0-11.800781-4.101562-13.800781-9.703124h-263.5v189.703124c0 18.796876 15.300781 34.097657 34.101562 34.097657zm0 0" fill="#402943"/><path d="m413.5 277.699219c0-21.5-17.398438-38.898438-38.898438-38.898438h-19.5v-233.601562h19.5c21.5 0 38.898438 17.402343 38.898438 38.902343zm0 0" fill="#fcd64b"/><path d="m413.5 281.699219c-2.199219 0-4-1.800781-4-4 0-19.300781-15.699219-34.898438-34.898438-34.898438h-19.5c-1.101562 0-2.101562-.402343-2.800781-1.199219-.800781-.800781-1.199219-1.800781-1.199219-2.800781v-233.601562c0-2.199219 1.796876-4 4-4h19.5c23.699219 0 42.898438 19.300781 42.898438 42.902343v233.5c0 2.296876-1.800781 4.097657-4 4.097657zm-38.898438-47c14.398438 0 27.097657 7.101562 34.898438 18v-208.597657c0-19.300781-15.699219-34.902343-34.898438-34.902343h-15.5v225.5zm0 0" fill="#402943"/><path d="m394 44.101562c0-21.5-17.398438-38.902343-38.898438-38.902343h19.398438c21.5 0 38.898438 17.402343 38.898438 38.902343v233.5c0-14.402343-7.796876-27-19.5-33.703124v-199.796876zm0 0" fill="#f5ab33"/><path d="m413.5 282.5c-2.699219 0-4.898438-2.199219-4.898438-4.898438 0-18.800781-15.300781-34.101562-34.101562-34.101562h-19.5c-2.699219 0-4.898438-2.199219-4.898438-4.898438v-233.402343c0-2.699219 2.199219-4.898438 4.898438-4.898438h19.5c24.101562 0 43.800781 19.597657 43.800781 43.800781v233.5c.097657 2.699219-2.101562 4.898438-4.800781 4.898438zm-53.5-48.601562h14.601562c13.699219 0 26 6.402343 34.097657 16.300781v-206c0-18.800781-15.300781-34.097657-34.097657-34.097657h-14.601562zm0 0" fill="#402943"/><path d="m374.601562 182.800781c-1.300781 0-2.402343-1.101562-2.402343-2.402343v-175.199219c0-1.300781 1.101562-2.398438 2.402343-2.398438 1.296876 0 2.398438 1.097657 2.398438 2.398438v175.101562c0 1.398438-1.101562 2.5-2.398438 2.5zm0 0" fill="#402943"/><path d="m374.601562 241.199219c-1.300781 0-2.402343-1.097657-2.402343-2.398438v-38.902343c0-1.296876 1.101562-2.398438 2.402343-2.398438 1.296876 0 2.398438 1.101562 2.398438 2.398438v38.902343c0 1.300781-1.101562 2.398438-2.398438 2.398438zm0 0" fill="#402943"/><path d="m4.898438 277.699219c0-21.5 17.402343-38.898438 38.902343-38.898438h19.5v-233.601562h-19.5c-21.5 0-38.902343 17.402343-38.902343 38.902343zm0 0" fill="#fcd64b"/><path d="m4.898438 281.699219c-2.199219 0-4-1.800781-4-4v-233.597657c0-23.703124 19.300781-42.902343 42.902343-42.902343h19.5c2.199219 0 4 1.800781 4 4v233.5c0 1.101562-.402343 2.101562-1.199219 2.800781-.800781.800781-1.800781 1.199219-2.800781 1.199219h-19.5c-19.300781 0-34.902343 15.699219-34.902343 34.902343 0 2.296876-1.796876 4.097657-4 4.097657zm38.902343-272.5c-19.300781 0-34.902343 15.699219-34.902343 34.902343v208.597657c7.800781-10.898438 20.5-18 34.902343-18h15.5v-225.5zm0 0" fill="#402943"/><path d="m24.300781 44.101562c0-21.5 17.398438-38.902343 38.898438-38.902343h-19.398438c-21.5 0-38.902343 17.402343-38.902343 38.902343v233.5c0-14.402343 7.800781-27 19.5-33.703124v-199.796876zm0 0" fill="#ffeca6"/><path d="m4.898438 282.5c-2.699219 0-4.898438-2.199219-4.898438-4.898438v-233.402343c0-24.097657 19.601562-43.800781 43.800781-43.800781h19.5c2.699219 0 4.898438 2.203124 4.898438 4.902343v233.5c0 2.699219-2.199219 4.898438-4.898438 4.898438h-19.5c-18.800781 0-34.101562 15.300781-34.101562 34.101562 0 2.5-2.097657 4.699219-4.800781 4.699219zm38.902343-272.398438c-18.800781 0-34.101562 15.296876-34.101562 34.097657v206c8-9.898438 20.300781-16.300781 34.101562-16.300781h14.597657v-223.796876zm0 0" fill="#402943"/><path d="m43.800781 182.800781c-1.300781 0-2.402343-1.101562-2.402343-2.402343v-175.199219c0-1.300781 1.101562-2.398438 2.402343-2.398438s2.398438 1.097657 2.398438 2.398438v175.101562c0 1.398438-1.097657 2.5-2.398438 2.5zm0 0" fill="#402943"/><path d="m43.800781 241.199219c-1.300781 0-2.402343-1.097657-2.402343-2.398438v-38.902343c0-1.296876 1.101562-2.398438 2.402343-2.398438s2.398438 1.101562 2.398438 2.398438v38.902343c0 1.300781-1.097657 2.398438-2.398438 2.398438zm0 0" fill="#402943"/><path d="m219.207031 159.203125 27.507813 27.507813-13.789063 13.785156-27.507812-27.503906zm0 0" fill="#e6e7e8"/><path d="m219.199219 159.199219-6.898438 6.902343 27.300781 27.796876 7.097657-7.097657zm0 0" fill="#bcbec0"/><path d="m232.898438 205.398438c-1.199219 0-2.5-.5-3.398438-1.398438l-27.5-27.5c-1.898438-1.898438-1.898438-5 0-6.898438l13.800781-13.800781c1.898438-1.902343 5-1.902343 6.898438 0l27.5 27.5c1.902343 1.898438 1.902343 5 0 6.898438l-13.800781 13.699219c-1 1-2.199219 1.5-3.5 1.5zm-20.597657-32.398438 20.597657 20.601562 6.902343-6.902343-20.601562-20.597657zm0 0" fill="#402943"/><path d="m253.554688 179.863281 55.011718 55.015625-27.507812 27.503906-55.011719-55.011718zm0 0" fill="#59c3f0"/><path d="m253.546875 179.972656 54.996094 55.027344-6.859375 6.855469-54.996094-55.027344zm0 0" fill="#21a0d6"/><path d="m232.933594 200.554688 54.996094 55.027343-6.859376 6.859375-54.996093-55.027344zm0 0" fill="#96dcfa"/><path d="m281.101562 267.300781c-1.203124 0-2.5-.5-3.402343-1.402343l-55-55c-1.898438-1.898438-1.898438-5 0-6.898438l27.5-27.5c1.902343-1.898438 5-1.898438 6.902343 0l55 55c1.898438 1.898438 1.898438 5 0 6.898438l-27.601562 27.5c-.898438.902343-2.199219 1.402343-3.398438 1.402343zm-48.203124-59.902343 48.203124 48.203124 20.597657-20.601562-48.199219-48.199219zm0 0" fill="#402943"/><path d="m226.039062 83.546875c-26.59375-26.59375-69.710937-26.59375-96.304687 0s-26.59375 69.710937 0 96.308594c26.59375 26.59375 69.710937 26.59375 96.304687 0 26.597657-26.597657 26.597657-69.714844 0-96.308594zm0 0" fill="#e6e7e8"/><path d="m226.101562 83.601562c-15.5-15.5-36.601562-22-56.800781-19.402343 14.398438 1.800781 28.398438 8.300781 39.5 19.402343 26.597657 26.597657 26.597657 69.699219 0 96.296876-11.101562 11.101562-25 17.5-39.5 19.402343 20.199219 2.597657 41.300781-3.902343 56.800781-19.402343 26.5-26.597657 26.5-69.699219 0-96.296876zm0 0" fill="#bcbec0"/><path d="m129.699219 179.898438c15.5 15.5 36.601562 22 56.800781 19.402343-14.398438-1.800781-28.398438-8.300781-39.5-19.402343-26.601562-26.597657-26.601562-69.699219 0-96.296876 11.101562-11.101562 25-17.5 39.5-19.402343-20.199219-2.597657-41.300781 3.902343-56.800781 19.402343-26.597657 26.597657-26.597657 69.699219 0 96.296876zm0 0" fill="#fff"/><path d="m177.898438 204.699219c-19.5 0-37.796876-7.597657-51.597657-21.398438s-21.402343-32.101562-21.402343-51.601562 7.601562-37.800781 21.402343-51.597657c13.800781-13.800781 32.097657-21.402343 51.597657-21.402343s37.800781 7.601562 51.601562 21.402343c13.800781 13.796876 21.398438 32.097657 21.398438 51.597657s-7.597657 37.800781-21.398438 51.601562-32.101562 21.398438-51.601562 21.398438zm0-136.199219c-16.199219 0-32.398438 6.199219-44.699219 18.5-24.699219 24.699219-24.699219 64.800781 0 89.398438 24.699219 24.703124 64.800781 24.703124 89.402343 0 24.699219-24.699219 24.699219-64.796876 0-89.398438-12.300781-12.300781-28.5-18.5-44.703124-18.5zm0 0" fill="#402943"/><path d="m209.988281 99.597656c-17.730469-17.730468-46.472656-17.730468-64.203125 0-17.730468 17.730469-17.730468 46.476563 0 64.203125 17.730469 17.730469 46.472656 17.730469 64.203125 0 17.730469-17.726562 17.730469-46.472656 0-64.203125zm0 0" fill="#59c3f0"/><path d="m210 99.601562c-10.199219-10.203124-24.199219-14.601562-37.5-13 9.800781 1.199219 19.199219 5.5 26.699219 13 17.699219 17.699219 17.699219 46.5 0 64.199219-7.5 7.5-16.898438 11.800781-26.699219 13 13.398438 1.597657 27.300781-2.699219 37.5-13 17.699219-17.699219 17.699219-46.5 0-64.199219zm0 0" fill="#21a0d6"/><path d="m145.800781 163.800781c10.199219 10.199219 24.199219 14.597657 37.5 13-9.800781-1.199219-19.199219-5.5-26.699219-13-17.703124-17.699219-17.703124-46.5 0-64.199219 7.5-7.5 16.898438-11.800781 26.699219-13-13.402343-1.601562-27.300781 2.699219-37.5 13-17.699219 17.699219-17.699219 46.5 0 64.199219zm0 0" fill="#96dcfa"/><g fill="#402943"><path d="m177.898438 182c-13.398438 0-26.097657-5.199219-35.5-14.699219-9.5-9.5-14.699219-22.101562-14.699219-35.5 0-13.402343 5.199219-26 14.699219-35.5s22.101562-14.699219 35.5-14.699219c13.402343 0 26.101562 5.199219 35.5 14.699219 9.5 9.5 14.703124 22.097657 14.703124 35.5 0 13.398438-5.203124 26.097657-14.703124 35.5-9.5 9.5-22.097657 14.699219-35.5 14.699219zm0-90.800781c-10.796876 0-21 4.199219-28.699219 11.902343-7.699219 7.699219-11.898438 17.796876-11.898438 28.699219 0 10.800781 4.199219 21 11.898438 28.699219s17.800781 11.898438 28.699219 11.898438c10.800781 0 21-4.199219 28.703124-11.898438 7.699219-7.699219 11.898438-17.800781 11.898438-28.699219 0-10.800781-4.199219-21-11.898438-28.699219-7.703124-7.703124-17.902343-11.902343-28.703124-11.902343zm0 0"/><path d="m239.800781 223.601562c-.601562 0-1.199219-.203124-1.699219-.703124-1-1-1-2.5 0-3.398438l27.5-27.5c1-1 2.5-1 3.398438 0 1 1 1 2.5 0 3.398438l-27.5 27.5c-.398438.402343-1.101562.703124-1.699219.703124zm0 0"/><path d="m78.101562 272.800781h-18.703124c-2.699219 0-4.898438-2.199219-4.898438-4.902343 0-2.699219 2.199219-4.898438 4.898438-4.898438h18.703124c2.699219 0 4.898438 2.199219 4.898438 4.898438 0 2.703124-2.199219 4.902343-4.898438 4.902343zm0 0"/><path d="m147 272.800781h-49c-2.699219 0-4.898438-2.199219-4.898438-4.902343 0-2.699219 2.199219-4.898438 4.898438-4.898438h49c2.699219 0 4.898438 2.199219 4.898438 4.898438 0 2.703124-2.199219 4.902343-4.898438 4.902343zm0 0"/></g><path d="m195.601562 295.101562c-15 0-27.101562-12.203124-27.101562-27.101562s12.199219-27.101562 27.101562-27.101562c15 0 27.097657 12.203124 27.097657 27.101562s-12.097657 27.101562-27.097657 27.101562zm0-34.902343c-4.203124 0-7.703124 3.402343-7.703124 7.699219 0 4.300781 3.402343 7.703124 7.703124 7.703124 4.199219 0 7.699219-3.402343 7.699219-7.703124 0-4.296876-3.402343-7.699219-7.699219-7.699219zm0 0" fill="#4ab5ac"/><path d="m195.601562 299.898438c-17.601562 0-32-14.398438-32-32 0-17.597657 14.398438-32 32-32 17.597657 0 32 14.402343 32 32 0 17.703124-14.300781 32-32 32zm0-54.199219c-12.300781 0-22.300781 10-22.300781 22.300781s10 22.300781 22.300781 22.300781c12.296876 0 22.296876-10 22.296876-22.300781s-10-22.300781-22.296876-22.300781zm0 34.800781c-6.902343 0-12.5-5.601562-12.5-12.5s5.597657-12.5 12.5-12.5c6.898438 0 12.5 5.601562 12.5 12.5.097657 6.800781-5.601562 12.5-12.5 12.5zm0-15.398438c-1.601562 0-2.800781 1.296876-2.800781 2.796876 0 1.601562 1.300781 2.800781 2.800781 2.800781 1.597657 0 2.796876-1.300781 2.796876-2.800781s-1.199219-2.796876-2.796876-2.796876zm0 0" fill="#402943"/></svg>